<?xml version="1.0" standalone="no"?>
<!DOCTYPE svg PUBLIC "-//W3C//DTD SVG 20010904//EN"
 "http://www.w3.org/TR/2001/REC-SVG-20010904/DTD/svg10.dtd">
<svg version="1.0" xmlns="http://www.w3.org/2000/svg"
 width="260.000000pt" height="260.000000pt" viewBox="0 0 260.000000 260.000000"
 preserveAspectRatio="xMidYMid meet">
<metadata>
Created by potrace 1.14, written by Peter Selinger 2001-2017
</metadata>
<g transform="translate(0.000000,260.000000) scale(0.100000,-0.100000)"
fill="#000000" stroke="none">
<path d="M0 1300 l0 -1300 1300 0 1300 0 0 1300 0 1300 -1300 0 -1300 0 0
-1300z m2550 1250 c20 -20 20 -33 20 -1248 0 -1095 -2 -1230 -16 -1250 l-15
-22 -1235 0 c-1221 0 -1234 0 -1254 20 -20 20 -20 33 -20 1250 0 1217 0 1230
20 1250 20 20 33 20 1250 20 1217 0 1230 0 1250 -20z"/>
<path d="M92 2508 c-9 -9 -12 -290 -12 -1204 0 -656 3 -1199 6 -1208 6 -14
122 -16 1214 -16 1092 0 1208 2 1214 16 3 9 6 552 6 1208 0 914 -3 1195 -12
1204 -17 17 -2399 17 -2416 0z m682 -164 c24 -9 20 -43 -6 -49 -13 -3 -54 -6
-93 -7 l-70 -3 -3 -577 -2 -578 24 -6 c13 -3 99 -4 190 -2 224 4 220 -1 153
178 -55 148 -48 140 -115 140 -41 0 -63 5 -72 15 -33 39 -20 40 808 42 438 2
807 1 820 -2 26 -6 30 -40 6 -49 -9 -3 -35 -6 -58 -6 -28 0 -48 -6 -59 -17
-14 -16 -45 -93 -67 -168 -5 -16 -21 -61 -35 -100 -14 -38 -32 -88 -40 -110
-7 -22 -20 -58 -29 -80 -43 -114 -68 -184 -76 -216 -5 -19 -16 -49 -25 -65 -8
-16 -15 -36 -15 -44 0 -8 -7 -28 -16 -45 -18 -34 -32 -71 -74 -200 -40 -120
-49 -135 -77 -135 -24 0 -63 49 -63 80 0 8 -7 28 -15 43 -8 15 -19 42 -24 60
-6 18 -22 64 -36 102 -14 39 -37 103 -50 143 -14 40 -27 77 -30 82 -12 20 -35
-4 -50 -53 -9 -29 -32 -90 -50 -137 -18 -47 -52 -138 -75 -202 -24 -66 -48
-119 -57 -122 -34 -14 -50 5 -81 92 -56 158 -63 177 -77 209 -8 17 -15 35 -15
40 0 5 -21 65 -46 134 -26 68 -62 167 -81 219 -18 52 -39 100 -47 105 -8 6
-173 11 -437 13 -233 2 -428 7 -433 12 -5 5 -6 16 -3 24 5 13 22 16 81 16 54
0 79 4 90 16 14 14 16 79 16 573 0 420 -3 560 -12 569 -7 7 -40 12 -79 12 -37
0 -74 3 -83 6 -19 7 -21 40 -3 47 18 8 572 8 591 1z"/>
<path d="M1154 1425 c-3 -8 2 -29 11 -47 9 -18 23 -51 30 -73 7 -22 23 -65 35
-95 12 -30 30 -77 39 -105 10 -27 35 -95 55 -150 21 -55 45 -122 55 -150 73
-203 90 -229 110 -162 15 51 32 96 64 174 l30 72 -30 78 c-17 43 -41 107 -53
143 -53 153 -110 302 -122 318 -16 19 -217 17 -224 -3z"/>
<path d="M1604 1426 c-3 -8 1 -28 10 -43 18 -33 60 -135 72 -178 6 -20 16 -30
28 -30 13 0 22 10 28 30 12 37 34 96 60 157 32 73 26 78 -92 78 -79 0 -102 -3
-106 -14z"/>
<path d="M1886 1418 c-8 -13 -26 -59 -41 -103 -14 -44 -30 -89 -35 -100 -5
-11 -20 -46 -34 -79 -31 -70 -32 -95 -7 -161 11 -27 35 -90 55 -140 19 -49 44
-121 57 -158 16 -50 26 -67 38 -65 14 3 44 75 82 195 5 18 16 45 24 60 8 15
15 34 15 41 0 8 6 28 14 45 12 30 26 67 75 202 38 104 63 170 81 214 10 25 16
51 13 58 -4 10 -42 13 -164 13 -153 0 -159 -1 -173 -22z"/>
</g>
</svg>
